<?xml version="1.0" standalone="no"?>
<!DOCTYPE svg PUBLIC "-//W3C//DTD SVG 20010904//EN"
 "http://www.w3.org/TR/2001/REC-SVG-20010904/DTD/svg10.dtd">
<svg version="1.0" xmlns="http://www.w3.org/2000/svg"
 width="512.000000pt" height="512.000000pt" viewBox="0 0 512.000000 512.000000"
 preserveAspectRatio="xMidYMid meet">
<metadata>
Created by potrace 1.14, written by Peter Selinger 2001-2017
</metadata>
<g transform="translate(0.000000,512.000000) scale(0.100000,-0.100000)"
fill="#000000" stroke="none">
<path d="M1275 4866 c-25 -20 -245 -338 -245 -356 0 -13 97 -157 206 -305 97
-132 184 -256 184 -262 0 -5 -37 -16 -82 -26 -425 -94 -817 -366 -1054 -729
-136 -208 -214 -408 -265 -683 -14 -77 -18 -360 -6 -468 19 -178 83 -386 173
-565 203 -404 556 -710 986 -853 191 -64 285 -80 503 -84 200 -4 313 8 450 45
l69 18 71 -47 c130 -88 224 -139 366 -195 75 -29 273 -82 340 -90 24 -3 58 -9
74 -12 61 -11 286 -10 388 2 583 71 1078 419 1336 940 128 260 181 495 176
789 -4 313 -68 543 -235 851 -33 61 -152 220 -209 279 l-51 53 198 66 c373
127 436 150 454 168 16 16 18 39 18 226 0 152 -3 212 -12 224 -28 34 -689 497
-706 493 -30 -6 -345 -116 -373 -130 -14 -8 -29 -22 -33 -30 -3 -9 -6 -167 -6
-350 l0 -333 -79 33 c-78 33 -219 81 -263 89 -13 2 -57 11 -98 19 -163 33
-423 38 -564 11 -11 -2 -38 -6 -61 -10 -22 -3 -70 -14 -108 -24 -37 -9 -69
-14 -72 -10 -11 18 -183 124 -275 171 -113 56 -299 121 -403 141 -37 7 -66 17
-63 23 2 5 85 124 185 262 100 139 186 264 193 278 8 18 8 32 1 48 -19 41
-225 327 -242 337 -25 13 -849 9 -866 -4z m625 -1446 c76 -12 278 -74 293 -89
4 -4 -14 -25 -40 -46 -336 -271 -562 -689 -618 -1145 -11 -87 -8 -297 5 -390
32 -236 104 -453 207 -632 18 -31 33 -58 33 -61 0 -10 -234 4 -306 18 -193 40
-375 128 -524 254 -151 127 -267 285 -339 463 -65 159 -88 281 -89 458 0 512
336 971 828 1128 82 27 170 45 260 55 57 6 220 -1 290 -13z m1542 -287 c440
-75 807 -405 933 -838 36 -126 47 -205 47 -340 0 -196 -36 -348 -127 -530
-170 -341 -475 -568 -860 -640 -126 -24 -307 -21 -435 6 -78 16 -214 60 -235
75 -19 14 -19 15 5 31 14 10 45 36 69 58 172 155 297 318 396 515 77 153 140
338 160 470 3 19 10 60 15 90 10 58 7 414 -4 465 -4 17 -11 55 -17 85 -29 154
-100 348 -178 489 -23 41 -41 76 -41 78 0 9 194 -1 272 -14z m-749 -221 c107
-162 176 -343 195 -512 10 -96 7 -274 -8 -360 -54 -322 -251 -621 -519 -791
l-56 -35 -39 55 c-108 155 -189 365 -211 551 -8 64 -8 241 0 285 30 171 63
279 121 392 53 103 116 193 196 279 90 95 249 218 270 207 3 -2 26 -34 51 -71z"/>
</g>
</svg>
